<svg xmlns="http://www.w3.org/2000/svg" viewBox="0 0 180 180" width="180" height="180">
  <!-- Background with rounded corners for iOS -->
  <rect x="0" y="0" width="180" height="180" rx="40" ry="40" fill="#1976d2"/>
  <rect x="5" y="5" width="170" height="170" rx="35" ry="35" fill="#1e88e5"/>
  
  <!-- Watch case -->
  <circle cx="90" cy="80" r="45" fill="#e0e0e0" stroke="#424242" stroke-width="3"/>
  <circle cx="90" cy="80" r="40" fill="#f5f5f5" stroke="#616161" stroke-width="2"/>
  <circle cx="90" cy="80" r="35" fill="#ffffff" stroke="#9e9e9e" stroke-width="1"/>
  
  <!-- Hour markers -->
  <circle cx="90" cy="50" r="3" fill="#424242"/>
  <circle cx="120" cy="80" r="3" fill="#424242"/>
  <circle cx="90" cy="110" r="3" fill="#424242"/>
  <circle cx="60" cy="80" r="3" fill="#424242"/>
  
  <!-- Additional hour markers -->
  <circle cx="105" cy="58" r="1.5" fill="#757575"/>
  <circle cx="105" cy="102" r="1.5" fill="#757575"/>
  <circle cx="75" cy="58" r="1.5" fill="#757575"/>
  <circle cx="75" cy="102" r="1.5" fill="#757575"/>
  
  <!-- Watch hands -->
  <line x1="90" y1="80" x2="90" y2="60" stroke="#424242" stroke-width="4" stroke-linecap="round"/>
  <line x1="90" y1="80" x2="110" y2="80" stroke="#424242" stroke-width="3" stroke-linecap="round"/>
  <circle cx="90" cy="80" r="4" fill="#424242"/>
  
  <!-- Watch crown -->
  <rect x="130" y="75" width="8" height="10" fill="#9e9e9e" stroke="#616161" stroke-width="1"/>
  <rect x="135" y="77" width="2" height="6" fill="#757575"/>
  
  <!-- Watch band -->
  <path d="M 55 80 Q 45 70 45 55 Q 45 40 55 40 L 65 40 Q 70 45 70 55 L 70 105 Q 70 110 65 115 L 55 115 Q 45 115 45 105 Q 45 90 55 80" fill="#424242" stroke="#212121" stroke-width="2"/>
  <path d="M 125 80 Q 135 70 135 55 Q 135 40 125 40 L 115 40 Q 110 45 110 55 L 110 105 Q 110 110 115 115 L 125 115 Q 135 115 135 105 Q 135 90 125 80" fill="#424242" stroke="#212121" stroke-width="2"/>
  
  <!-- Band details -->
  <line x1="60" y1="50" x2="60" y2="110" stroke="#616161" stroke-width="1"/>
  <line x1="120" y1="50" x2="120" y2="110" stroke="#616161" stroke-width="1"/>
  
  <!-- Question mark -->
  <g transform="translate(90, 135)">
    <!-- Question mark curve -->
    <path d="M -12 -12 Q -12 -20 0 -20 Q 12 -20 12 -12 Q 12 -6 6 -3 L 0 3" stroke="#ff5722" stroke-width="6" fill="none" stroke-linecap="round"/>
    <!-- Question mark dot -->
    <circle cx="0" cy="12" r="4" fill="#ff5722"/>
  </g>
  
  <!-- Watch highlight -->
  <ellipse cx="75" cy="65" rx="12" ry="6" fill="rgba(255,255,255,0.4)"/>
  
  <!-- Subtle shadow -->
  <ellipse cx="90" cy="170" rx="60" ry="8" fill="rgba(0,0,0,0.1)"/>
</svg> 