<svg xmlns="http://www.w3.org/2000/svg" viewBox="0 0 32 32" width="32" height="32">
  <!-- Background -->
  <circle cx="16" cy="16" r="15" fill="#1976d2" stroke="#0d47a1" stroke-width="1"/>
  
  <!-- Watch case -->
  <circle cx="16" cy="14" r="8" fill="#e0e0e0" stroke="#424242" stroke-width="0.8"/>
  <circle cx="16" cy="14" r="7" fill="#ffffff" stroke="#9e9e9e" stroke-width="0.5"/>
  
  <!-- Hour markers -->
  <circle cx="16" cy="8" r="0.5" fill="#424242"/>
  <circle cx="22" cy="14" r="0.5" fill="#424242"/>
  <circle cx="16" cy="20" r="0.5" fill="#424242"/>
  <circle cx="10" cy="14" r="0.5" fill="#424242"/>
  
  <!-- Watch hands -->
  <line x1="16" y1="14" x2="16" y2="10" stroke="#424242" stroke-width="1.2" stroke-linecap="round"/>
  <line x1="16" y1="14" x2="19" y2="14" stroke="#424242" stroke-width="1" stroke-linecap="round"/>
  <circle cx="16" cy="14" r="0.8" fill="#424242"/>
  
  <!-- Watch crown -->
  <rect x="23" y="13" width="1.5" height="2" fill="#9e9e9e"/>
  
  <!-- Watch band -->
  <path d="M 10 14 Q 8 12 8 10 Q 8 8 10 8 L 12 8 Q 13 9 13 10 L 13 18 Q 13 19 12 20 L 10 20 Q 8 20 8 18 Q 8 16 10 14" fill="#424242"/>
  <path d="M 22 14 Q 24 12 24 10 Q 24 8 22 8 L 20 8 Q 19 9 19 10 L 19 18 Q 19 19 20 20 L 22 20 Q 24 20 24 18 Q 24 16 22 14" fill="#424242"/>
  
  <!-- Question mark -->
  <g transform="translate(16, 24)">
    <path d="M -2 -2 Q -2 -4 0 -4 Q 2 -4 2 -2 Q 2 -1 1 0 L 0 1" stroke="#ff5722" stroke-width="1.5" fill="none" stroke-linecap="round"/>
    <circle cx="0" cy="2.5" r="0.6" fill="#ff5722"/>
  </g>
</svg> 