<svg xmlns="http://www.w3.org/2000/svg" viewBox="0 0 64 64" width="64" height="64">
  <!-- Background circle -->
  <circle cx="32" cy="32" r="30" fill="#1976d2" stroke="#0d47a1" stroke-width="2"/>
  
  <!-- Watch case -->
  <circle cx="32" cy="28" r="16" fill="#e0e0e0" stroke="#424242" stroke-width="1.5"/>
  <circle cx="32" cy="28" r="14" fill="#f5f5f5" stroke="#616161" stroke-width="1"/>
  
  <!-- Watch face -->
  <circle cx="32" cy="28" r="12" fill="#ffffff" stroke="#9e9e9e" stroke-width="0.5"/>
  
  <!-- Hour markers -->
  <circle cx="32" cy="18" r="1" fill="#424242"/>
  <circle cx="42" cy="28" r="1" fill="#424242"/>
  <circle cx="32" cy="38" r="1" fill="#424242"/>
  <circle cx="22" cy="28" r="1" fill="#424242"/>
  
  <!-- Watch hands -->
  <line x1="32" y1="28" x2="32" y2="22" stroke="#424242" stroke-width="2" stroke-linecap="round"/>
  <line x1="32" y1="28" x2="37" y2="28" stroke="#424242" stroke-width="1.5" stroke-linecap="round"/>
  <circle cx="32" cy="28" r="1.5" fill="#424242"/>
  
  <!-- Watch crown -->
  <rect x="46" y="26" width="3" height="4" fill="#9e9e9e" stroke="#616161" stroke-width="0.5"/>
  
  <!-- Watch band -->
  <path d="M 20 28 Q 16 24 16 20 Q 16 16 20 16 L 24 16 Q 26 18 26 20 L 26 36 Q 26 38 24 40 L 20 40 Q 16 40 16 36 Q 16 32 20 28" fill="#424242" stroke="#212121" stroke-width="0.5"/>
  <path d="M 44 28 Q 48 24 48 20 Q 48 16 44 16 L 40 16 Q 38 18 38 20 L 38 36 Q 38 38 40 40 L 44 40 Q 48 40 48 36 Q 48 32 44 28" fill="#424242" stroke="#212121" stroke-width="0.5"/>
  
  <!-- Question mark -->
  <g transform="translate(32, 48)">
    <!-- Question mark curve -->
    <path d="M -4 -4 Q -4 -8 0 -8 Q 4 -8 4 -4 Q 4 -2 2 -1 L 0 1" stroke="#ff5722" stroke-width="2.5" fill="none" stroke-linecap="round"/>
    <!-- Question mark dot -->
    <circle cx="0" cy="3" r="1.2" fill="#ff5722"/>
  </g>
  
  <!-- Subtle highlight on watch -->
  <ellipse cx="28" cy="24" rx="4" ry="2" fill="rgba(255,255,255,0.3)"/>
</svg> 